HIERARCHY
ROOT root
{
	OFFSET 0.000000 0.000000 0.000000
	CHANNELS 6 Xposition Yposition Zposition Zrotation Yrotation Xrotation
	JOINT lhip
	{
		OFFSET 0.058581 -0.082280 -0.017664
		CHANNELS 3 Zrotation Yrotation Xrotation
		JOINT lknee
		{
			OFFSET 0.043451 -0.386469 0.008037
			CHANNELS 3 Zrotation Yrotation Xrotation
			JOINT lankle
			{
				OFFSET -0.014790 -0.426874 -0.037428
				CHANNELS 3 Zrotation Yrotation Xrotation
				JOINT ltoe
				{
					OFFSET 0.041054 -0.060286 0.122042
					CHANNELS 3 Zrotation Yrotation Xrotation
					End Site
					{
						OFFSET 0.000000 0.000000 0.000000
					}
				}
			}
		}
	}
	JOINT rhip
	{
		OFFSET -0.060310 -0.090513 -0.013543
		CHANNELS 3 Zrotation Yrotation Xrotation
		JOINT rknee
		{
			OFFSET -0.043257 -0.383688 -0.004843
			CHANNELS 3 Zrotation Yrotation Xrotation
			JOINT rankle
			{
				OFFSET 0.019056 -0.420046 -0.034562
				CHANNELS 3 Zrotation Yrotation Xrotation
				JOINT rtoe
				{
					OFFSET -0.034840 -0.062106 0.130323
					CHANNELS 3 Zrotation Yrotation Xrotation
					End Site
					{
						OFFSET 0.000000 0.000000 0.000000
					}
				}
			}
		}
	}
	JOINT lowerback
	{
		OFFSET 0.004439 0.124404 -0.038385
		CHANNELS 3 Zrotation Yrotation Xrotation
		JOINT upperback
		{
			OFFSET 0.004488 0.137956 0.026820
			CHANNELS 3 Zrotation Yrotation Xrotation
			JOINT chest
			{
				OFFSET -0.002265 0.056032 0.002855
				CHANNELS 3 Zrotation Yrotation Xrotation
				JOINT lowerneck
				{
					OFFSET -0.013390 0.211636 -0.033468
					CHANNELS 3 Zrotation Yrotation Xrotation
					JOINT upperneck
					{
						OFFSET 0.010113 0.088937 0.050410
						CHANNELS 3 Zrotation Yrotation Xrotation
						End Site
						{
							OFFSET 0.000000 0.000000 0.000000
						}
					}
				}
				JOINT lclavicle
				{
					OFFSET 0.071702 0.114000 -0.018898
					CHANNELS 3 Zrotation Yrotation Xrotation
					JOINT lshoulder
					{
						OFFSET 0.122921 0.045205 -0.019046
						CHANNELS 3 Zrotation Yrotation Xrotation
						JOINT lelbow
						{
							OFFSET 0.255332 -0.015649 -0.022946
							CHANNELS 3 Zrotation Yrotation Xrotation
							JOINT lwrist
							{
								OFFSET 0.265709 0.012698 -0.007375
								CHANNELS 3 Zrotation Yrotation Xrotation
								End Site
								{
									OFFSET 0.000000 0.000000 0.000000
								}
							}
						}
					}
				}
				JOINT rclavicle
				{
					OFFSET -0.082954 0.112472 -0.023707
					CHANNELS 3 Zrotation Yrotation Xrotation
					JOINT rshoulder
					{
						OFFSET -0.113228 0.046853 -0.008472
						CHANNELS 3 Zrotation Yrotation Xrotation
						JOINT relbow
						{
							OFFSET -0.260127 -0.014369 -0.031269
							CHANNELS 3 Zrotation Yrotation Xrotation
							JOINT rwrist
							{
								OFFSET -0.269108 0.006794 -0.006027
								CHANNELS 3 Zrotation Yrotation Xrotation
								End Site
								{
									OFFSET 0.000000 0.000000 0.000000
								}
							}
						}
					}
				}
			}
		}
	}
}
MOTION
Frames: 16
Frame Time: 0.033333
-1.713028 -0.642660 1.002924 111.992460 1.098274 94.724285 -3.224402 -0.319824 -0.876868 -3.190352 -9.238976 11.348293 6.387729 10.936352 -21.107941 0.000000 -0.000000 0.000000 1.511281 -0.080848 -10.701744 1.252126 -0.205347 27.723031 3.476599 -6.093709 -19.736626 0.000000 -0.000000 0.000000 0.715113 0.896988 13.210474 1.004791 1.665879 -3.401908 -0.620715 -0.504479 1.309412 3.850908 3.628016 -5.912047 -2.450851 -3.254278 12.864016 -30.674761 4.729578 0.001347 -53.106044 -5.374953 8.374687 4.980767 -30.552108 8.691016 -5.975195 -6.549094 -1.545106 30.341365 1.549613 -1.377787 56.862655 3.140714 14.369348 -16.515149 27.502470 -9.063894 3.963382 4.036697 -3.820464 
-1.701486 -0.633446 0.997896 112.123369 0.561803 94.721328 -4.117622 -0.113955 0.319690 -3.257186 -10.113698 11.085790 7.225339 11.504003 -21.840771 0.000000 -0.000000 0.000000 0.436802 0.124393 -13.769485 1.327512 -1.874820 34.796115 3.975114 -6.451902 -18.385831 0.000000 -0.000000 0.000000 0.137567 0.260533 14.284286 0.891919 1.855571 -3.576493 -0.705033 -0.690451 1.499432 4.092508 4.018392 -6.839425 -2.669976 -2.977892 12.911369 -30.580768 4.580668 -0.172809 -52.957092 -5.356775 8.542658 5.078935 -31.376916 8.481665 -5.490936 -7.065025 -1.372520 30.546240 1.590301 -1.793880 56.767017 3.159615 14.725419 -16.886711 28.751238 -9.530246 4.056638 4.344501 -3.710771 
-1.688588 -0.623651 0.993829 112.606220 0.338168 94.611210 -4.634719 0.117817 1.662598 -3.284209 -11.179543 10.874507 7.957695 12.151969 -22.493037 0.000000 -0.000000 0.000000 -0.590887 0.386369 -17.871717 1.299558 -3.728079 43.612347 4.936822 -6.916544 -13.065106 0.000000 -0.000000 0.000000 -0.183491 -0.846310 15.333721 0.938525 2.103664 -3.519462 -0.757965 -0.920071 1.669469 4.271774 4.030699 -7.476309 -2.827551 -2.330690 12.978221 -30.756182 4.321760 -0.362337 -52.701542 -5.528402 8.812016 5.029380 -32.146067 8.231902 -4.825063 -7.309841 -0.460483 30.651625 1.748586 -2.071490 56.449755 3.342680 15.185440 -16.907430 29.681448 -10.250702 3.967777 4.603851 -3.142574 
-1.665698 -0.608187 0.987808 113.671675 0.350232 94.736404 -4.884687 0.266173 3.674123 -3.280946 -12.846972 10.509956 9.127738 13.108552 -23.542266 0.000000 -0.000000 0.000000 -2.190804 0.176091 -24.293606 1.417471 -6.118204 55.193545 5.982282 -7.059171 -8.380386 0.000000 -0.000000 0.000000 -0.396108 -2.350202 16.744652 1.273429 2.049449 -3.565283 -0.722567 -1.418973 1.665754 4.650191 4.237474 -7.906756 -2.869072 -1.728924 13.004265 -30.638422 3.721124 -0.118313 -53.004407 -5.777813 9.236396 4.867326 -33.742282 8.217321 -4.010972 -7.488638 0.213126 30.649112 1.823336 -1.971277 56.131582 3.027580 15.273754 -17.799991 31.665656 -11.698557 3.677748 4.932360 -2.991611 
-1.656310 -0.602942 0.985371 114.300545 0.500292 94.838975 -4.611280 0.273821 4.428812 -3.344694 -13.485559 10.320826 9.225248 13.244919 -24.123840 0.000000 -0.000000 0.000000 -2.573916 0.093781 -26.061429 1.385054 -7.084548 57.608291 5.792483 -7.420491 -8.882458 0.000000 -0.000000 0.000000 -0.380679 -2.883234 17.115491 1.465112 1.880752 -3.635532 -0.622991 -1.722857 1.774664 4.851442 4.573359 -8.241481 -2.957806 -1.708109 13.186130 -30.415577 3.400833 -0.007641 -53.327530 -5.981002 9.525242 4.761137 -33.933695 8.450010 -3.685563 -8.015063 0.054913 30.649880 1.847772 -1.924983 55.992556 2.879180 15.257113 -18.037601 32.088987 -12.086395 3.308567 5.306156 -3.441885 
-1.633268 -0.591964 0.980490 115.661524 1.122458 94.802866 -3.358660 1.205953 6.773495 -3.449410 -15.654740 9.254180 8.912352 13.104415 -24.922565 0.000000 -0.000000 0.000000 -3.377553 0.728889 -28.518411 1.504827 -9.502776 60.182116 5.465574 -7.856147 -10.893757 0.000000 -0.000000 0.000000 -0.045765 -4.616913 17.940331 1.700850 1.876551 -3.647708 -0.503908 -2.399037 1.720436 5.208803 5.448740 -8.410724 -3.156730 -1.570258 13.063981 -30.649084 3.568124 0.036704 -52.897061 -5.796792 9.894190 3.994582 -35.991842 9.534897 -3.498625 -8.262469 0.468171 31.247424 1.129739 -2.191977 55.006572 2.823132 14.996195 -17.178602 33.069916 -11.384402 3.340194 5.226229 -2.894672 
-1.609970 -0.581460 0.974770 116.384523 1.619265 95.568555 -2.387030 1.614480 8.132304 -3.575476 -16.859973 8.414682 8.899837 13.332968 -25.696526 0.000000 -0.000000 0.000000 -4.130870 0.922936 -31.876361 2.035957 -10.404127 60.557799 5.595263 -7.746965 -12.770565 0.000000 -0.000000 0.000000 0.080273 -5.646711 18.343117 2.006409 1.903363 -3.922297 -0.318388 -2.707008 1.742724 5.545087 6.275592 -9.291192 -3.140992 -1.582020 13.149821 -30.913935 3.346199 0.221860 -52.714556 -6.082685 10.467288 3.243448 -38.191006 10.028361 -2.905646 -8.546742 0.245383 31.591374 0.647920 -2.360136 54.321497 2.203321 14.892631 -17.493444 34.108131 -11.690881 3.158062 5.264877 -2.800521 
-1.585462 -0.569754 0.967980 117.190546 2.046602 96.472667 -1.503391 2.042874 9.284801 -3.530871 -17.971359 7.942777 8.307135 13.599454 -27.003456 0.000000 -0.000000 0.000000 -4.807406 0.619484 -34.988755 2.209688 -11.406631 59.247170 6.244136 -7.849060 -15.302516 0.000000 -0.000000 0.000000 0.442229 -6.604800 18.936595 2.284246 1.704336 -4.146960 -0.175856 -3.029418 1.745907 5.516409 7.273356 -10.868131 -3.260857 -1.532295 12.976401 -30.922145 2.987229 0.191269 -52.759859 -6.381274 11.082627 3.026818 -40.578613 11.908987 -3.484201 -8.608621 1.700393 31.649286 0.321975 -2.585869 53.796933 1.415202 14.570119 -17.946899 35.558846 -12.011809 2.850501 5.317604 -2.259942 
-1.557970 -0.558286 0.959929 117.535799 2.663065 97.655522 -0.376149 2.410505 10.220768 -3.660211 -19.251337 7.849429 7.699320 13.689002 -28.281218 0.000000 -0.000000 0.000000 -5.195027 1.134716 -37.948183 3.162778 -11.472127 57.465293 6.965306 -6.796047 -17.556925 0.000000 -0.000000 0.000000 0.585355 -7.581701 19.104662 2.683472 1.804710 -4.074918 0.052185 -3.017638 1.577368 5.422277 8.196294 -12.058894 -3.222056 -1.733231 12.348784 -30.998175 2.711525 0.310150 -52.587224 -6.511964 11.548478 3.167514 -43.502914 13.499876 -3.983669 -8.292483 3.456856 31.757257 -0.089258 -2.719600 53.111540 0.380014 14.167772 -18.385160 37.700337 -12.054684 3.055832 5.367190 -2.029134 
-1.527474 -0.546201 0.951921 117.760587 3.350599 98.765104 0.616077 2.597474 10.914846 -3.700547 -20.018659 8.848335 6.968313 13.884780 -29.063612 0.000000 -0.000000 0.000000 -5.148772 1.768594 -40.223581 4.837795 -10.883300 56.068099 7.327669 -4.342160 -18.946636 0.000000 -0.000000 0.000000 0.730766 -8.256542 19.333227 3.195375 1.682533 -3.890294 0.394387 -3.182857 1.355758 5.558075 9.024170 -13.171700 -2.841426 -1.703992 11.724147 -31.103756 2.534636 0.154818 -52.739540 -6.513089 11.846383 3.951909 -45.905060 14.037792 -4.397263 -8.446495 4.968583 31.740960 -0.415833 -2.800187 52.325088 -0.419302 14.084252 -18.867559 40.465647 -11.611941 3.305708 5.577389 -1.558436 
-1.493880 -0.532994 0.944922 117.837170 3.881182 99.694412 1.029105 2.297311 10.768817 -4.041420 -20.440138 12.466534 6.563686 13.767994 -28.560396 0.000000 -0.000000 0.000000 -4.348889 2.249497 -41.476010 5.815814 -10.209821 56.871563 6.749178 -2.829177 -19.296799 0.000000 -0.000000 0.000000 0.721356 -8.520025 19.560693 3.809631 1.385213 -3.643483 0.742039 -3.269301 1.206691 5.355229 8.847612 -13.522136 -2.579541 -2.204643 10.521656 -30.754198 2.417152 0.109605 -52.816193 -6.399758 12.055406 4.198707 -48.349357 16.014234 -5.081993 -7.979637 6.650787 31.305471 -0.412461 -2.879296 52.041682 -1.126372 14.045256 -18.888957 43.265142 -10.832177 2.648315 5.704855 -1.634503 
-1.454814 -0.518414 0.941035 117.721869 4.765297 99.812579 1.543138 1.442777 9.297958 -4.857211 -18.750898 21.048207 3.283627 10.912668 -27.526567 0.000000 -0.000000 0.000000 -2.777622 3.845650 -39.878174 3.272959 -12.096499 60.260497 6.281639 -3.063061 -19.007610 0.000000 -0.000000 0.000000 0.960365 -8.232528 20.361436 4.747570 0.813432 -1.883215 0.950604 -3.104193 -1.193092 5.470757 7.472941 -11.184716 -2.047422 -2.806375 7.646890 -31.466088 1.821994 1.040149 -52.362986 -5.069065 10.808863 6.760566 -50.883039 15.429989 -11.999458 -10.822927 10.454107 31.662897 0.575215 -2.299499 51.290606 -2.701464 13.461074 -20.604016 45.969453 -9.781034 6.913744 7.322212 -1.670901 
-1.412312 -0.500809 0.938002 117.155952 5.035171 100.258670 1.160465 -0.084755 4.409151 -7.553265 -16.481971 35.312391 -0.268525 7.843812 -20.065923 0.000000 -0.000000 0.000000 -0.787326 4.983790 -36.390429 2.332578 -10.916563 60.036617 4.287174 -4.976708 -19.582469 0.000000 -0.000000 0.000000 1.406768 -7.284703 20.040388 5.198495 0.481188 -1.032936 0.627114 -3.293198 -0.991843 6.016555 10.127034 -14.730248 -2.384248 -1.118943 8.956023 -32.830685 1.718734 0.255880 -50.326228 -4.103814 11.078674 6.836472 -52.644125 15.794632 -12.901155 -11.550713 12.615955 33.255602 1.283152 -2.453696 49.495256 -2.265924 14.663483 -21.113303 47.529702 -9.584992 6.683538 7.579675 -2.309722 
-1.368062 -0.482601 0.933896 116.427673 4.895337 99.725710 1.168654 -1.218326 -3.748807 -10.963790 -11.619601 52.821868 -6.139002 4.855257 -9.239608 0.000000 -0.000000 0.000000 1.971325 4.919953 -31.096128 2.008753 -7.038110 58.471046 1.102888 -7.271611 -22.263545 0.000000 -0.000000 0.000000 1.389783 -5.057067 21.562141 5.633360 -0.330486 -1.934098 0.623491 -2.536979 -0.445815 2.700852 10.727633 -16.480303 -2.257826 1.159897 6.144357 -32.337256 0.974428 -0.502462 -49.745217 -3.652394 13.549538 -1.896937 -52.539696 16.263272 3.109152 -12.402501 -7.517587 33.618573 1.613691 -2.568791 48.740793 -1.210063 16.022873 -20.537607 49.169986 -9.079285 0.825127 7.515076 -3.898468 
-1.325157 -0.463466 0.926023 115.296596 4.221260 98.604938 1.150912 -2.432417 -12.345115 -11.164440 -4.673998 67.161311 -3.522626 3.887928 -7.561503 0.000000 -0.000000 0.000000 3.253068 4.588037 -25.662082 1.212866 -4.380682 57.998634 -0.435054 -7.948200 -25.340958 0.000000 -0.000000 0.000000 1.022800 -2.225864 23.917073 5.355044 -0.418666 -2.284058 0.853196 -1.956175 -0.488724 1.948448 8.927241 -16.833707 -2.746822 1.884546 2.161392 -32.789580 0.216777 -0.877137 -48.476672 -2.172175 13.170902 -2.819497 -54.820580 17.521222 4.259707 -12.078926 -8.260617 33.335875 2.961945 -2.827660 48.509163 -0.738006 16.276365 -21.739371 52.391099 -9.428383 1.099069 7.321680 -3.478890 
-1.283323 -0.443500 0.916859 113.765279 3.189107 97.644646 2.221382 -2.673957 -22.649669 -8.074388 2.836918 77.911043 1.534762 5.140360 -9.683086 0.000000 -0.000000 0.000000 3.566190 3.746713 -21.053956 0.832643 -1.218350 58.306323 -0.865195 -7.909095 -27.265764 0.000000 -0.000000 0.000000 0.361766 0.861948 26.166449 4.678477 0.033420 -2.596442 0.809726 -1.197153 -0.203638 1.892095 7.694324 -18.311208 -3.022529 1.333576 0.742831 -32.824138 -0.035878 -1.076929 -47.127068 -0.969902 12.473177 -3.178782 -58.109437 18.133943 5.238046 -11.743654 -8.954905 33.054997 4.578677 -2.746153 48.082955 0.806117 16.715620 -24.438092 55.984414 -11.668734 -0.009478 8.179745 -3.111874 
